<?xml version="1.0" encoding="UTF-8"?> <svg xmlns="http://www.w3.org/2000/svg" xmlns:xlink="http://www.w3.org/1999/xlink" version="1.1" id="Artwork" x="0px" y="0px" viewBox="0 0 452 72" style="enable-background:new 0 0 452 72;" xml:space="preserve"> <style type="text/css"> .st0{fill-rule:evenodd;clip-rule:evenodd;fill:#231F20;} .st1{fill:#231F20;} .st2{fill-rule:evenodd;clip-rule:evenodd;fill:#006940;} .st3{fill-rule:evenodd;clip-rule:evenodd;fill:none;stroke:#006940;stroke-width:0.25;} .st4{fill-rule:evenodd;clip-rule:evenodd;fill:#006D44;} .st5{fill-rule:evenodd;clip-rule:evenodd;fill:#006F48;} .st6{fill-rule:evenodd;clip-rule:evenodd;fill:#00714A;} .st7{fill-rule:evenodd;clip-rule:evenodd;fill:#00744E;} .st8{fill-rule:evenodd;clip-rule:evenodd;fill:#007753;} .st9{fill-rule:evenodd;clip-rule:evenodd;fill:#007A57;} .st10{fill-rule:evenodd;clip-rule:evenodd;fill:#007D5A;} .st11{fill-rule:evenodd;clip-rule:evenodd;fill:#00805F;} .st12{fill-rule:evenodd;clip-rule:evenodd;fill:#028063;} .st13{fill-rule:evenodd;clip-rule:evenodd;fill:#1D8066;} .st14{fill-rule:evenodd;clip-rule:evenodd;fill:#2B806B;} .st15{fill-rule:evenodd;clip-rule:evenodd;fill:#338570;} .st16{fill-rule:evenodd;clip-rule:evenodd;fill:#3E8873;} .st17{fill-rule:evenodd;clip-rule:evenodd;fill:#468B77;} .st18{fill-rule:evenodd;clip-rule:evenodd;fill:#50907D;} .st19{fill-rule:evenodd;clip-rule:evenodd;fill:#589480;} .st20{fill-rule:evenodd;clip-rule:evenodd;fill:#5D9680;} .st21{fill-rule:evenodd;clip-rule:evenodd;fill:#65A38A;} .st22{fill-rule:evenodd;clip-rule:evenodd;fill:#231F20;stroke:#231F20;stroke-width:0.8841;} .st23{fill-rule:evenodd;clip-rule:evenodd;fill:#FFFFFF;} .st24{fill:#FFFFFF;} .st25{fill:#2B653C;} </style> <g> <g> <g> <path class="st24" d="M120.6,43.1c0.1,1.3,0.4,3.3,1.9,3.8c1,0.3,1.8,0.3,2.2,0.3c0.2,0,0.4,0,0.4,0.2c0,0.2-0.1,0.3-0.5,0.3 c-0.8,0-4.8-0.1-6.1-0.2c-0.8-0.1-1-0.2-1-0.4c0-0.1,0.1-0.2,0.2-0.2c0.2-0.1,0.2-0.6,0.1-1.3L116.1,27l-8.8,18.7 c-0.7,1.6-0.9,1.9-1.2,1.9c-0.2,0-0.4-0.4-1.1-1.6c-0.9-1.7-4-7.9-4.2-8.2c-0.3-0.6-4.4-9.4-4.8-10.4l-1.5,16.7 c0,0.6-0.1,1.1-0.1,1.7c0,0.9,0.4,1.2,1,1.3c0.6,0.1,1.1,0.1,1.3,0.1c0.2,0,0.4,0.1,0.4,0.2c0,0.2-0.2,0.3-0.5,0.3 c-1.3,0-3.1-0.1-3.4-0.1c-0.3,0-2,0.1-3,0.1c-0.4,0-0.6,0-0.6-0.3c0-0.1,0.2-0.2,0.4-0.2c0.3,0,0.5,0,1.1-0.1 c1.2-0.2,1.2-1.5,1.4-2.9L95,21c0-0.4,0.2-0.7,0.4-0.7s0.4,0.1,0.5,0.5l10.9,22.3l10.4-22.3c0.1-0.3,0.3-0.6,0.5-0.6 s0.4,0.3,0.4,1L120.6,43.1z"></path> <path class="st24" d="M130.6,33.5c0-4.7,0-5.5-0.1-6.5c-0.1-1-0.3-1.5-1-1.6c-0.4-0.1-0.6-0.1-0.8-0.1c-0.2,0-0.4-0.1-0.4-0.2 c0-0.2,0.1-0.2,0.5-0.2c1.1,0,3.1,0.1,3.2,0.1c0.1,0,2.2-0.1,3.2-0.1c0.4,0,0.5,0.1,0.5,0.2c0,0.1-0.1,0.2-0.4,0.2 c-0.2,0-0.4,0-0.6,0.1c-1,0.1-1.1,0.7-1.2,1.7c-0.1,1,0,1.8,0,6.5v5.3c0,2.7,0,5.2,0.1,6.5c0.1,1,0.3,1.4,1.2,1.6 c0.5,0.1,1.2,0.1,1.4,0.1c0.3,0,0.4,0.1,0.4,0.2c0,0.1-0.1,0.2-0.5,0.2c-1.8,0-3.9-0.1-4.1-0.1c-0.1,0-2.2,0.1-3.2,0.1 c-0.3,0-0.6-0.1-0.6-0.2c0-0.1,0.1-0.2,0.5-0.2c0.2,0,0.6,0,0.9-0.1c0.6-0.1,0.7-0.9,0.8-1.7c0.2-1.3,0.2-3.8,0.2-6.5V33.5z"></path> <path class="st24" d="M141.8,47.3c-0.5-0.2-0.5-0.4-0.5-1.2c0-1.6,0.1-2.8,0.1-3.3c0-0.3,0.1-0.5,0.3-0.5s0.2,0.1,0.2,0.4 c0,0.2,0,0.6,0.1,1.1c0.5,2.3,2.6,3.2,4.6,3.2c2.9,0,4.4-2,4.4-3.8c0-2-0.9-3.3-3.5-5.4l-1.4-1.1c-3.4-2.7-4.1-4.6-4.1-6.7 c0-3.3,2.6-5.5,6.6-5.5c1.2,0,2.1,0.1,2.9,0.3c0.7,0.1,1,0.2,1.2,0.2c0.2,0,0.3,0.1,0.3,0.2c0,0.1-0.1,1.4-0.1,3.4 c0,0.5-0.1,0.7-0.2,0.7s-0.2-0.1-0.2-0.4c0-0.3-0.1-1.1-0.4-1.7c-0.2-0.3-1-1.7-4-1.7c-2.1,0-3.7,1.3-3.7,3.4 c0,1.7,0.9,2.7,3.8,4.9l0.8,0.6c3.7,2.8,4.7,4.7,4.7,7.2c0,1.3-0.5,3.6-2.7,5c-1.4,0.9-3.1,1.2-4.8,1.2 C144.5,48,143.1,47.9,141.8,47.3z"></path> <path class="st24" d="M158.7,47.3c-0.5-0.2-0.5-0.4-0.5-1.2c0-1.6,0.1-2.8,0.1-3.3c0-0.3,0.1-0.5,0.3-0.5s0.2,0.1,0.2,0.4 c0,0.2,0,0.6,0.1,1.1c0.5,2.3,2.6,3.2,4.6,3.2c2.9,0,4.4-2,4.4-3.8c0-2-0.9-3.3-3.5-5.4l-1.4-1.1c-3.4-2.7-4.1-4.6-4.1-6.7 c0-3.3,2.6-5.5,6.6-5.5c1.2,0,2.1,0.1,2.9,0.3c0.7,0.1,1,0.2,1.2,0.2c0.2,0,0.3,0.1,0.3,0.2c0,0.1-0.1,1.4-0.1,3.4 c0,0.5-0.1,0.7-0.2,0.7s-0.2-0.1-0.2-0.4c0-0.3-0.1-1.1-0.4-1.7c-0.2-0.3-1-1.7-4-1.7c-2.1,0-3.7,1.3-3.7,3.4 c0,1.7,0.9,2.7,3.8,4.9l0.8,0.6c3.7,2.8,4.7,4.7,4.7,7.2c0,1.3-0.5,3.6-2.7,5c-1.4,0.9-3.1,1.2-4.8,1.2 C161.5,48,160.1,47.9,158.7,47.3z"></path> <path class="st24" d="M174.8,36.2c0-4.7,3.7-11.8,12.4-11.8c7,0,12.4,4.2,12.4,11.3c0,6.8-5,12.3-12.6,12.3 C178.3,48,174.8,41.6,174.8,36.2z M196.3,36.6c0-7.1-4.4-11.1-9.3-11.1c-4.9,0-8.9,3.1-8.9,9.8c0,7,3.9,11.6,9.8,11.6 C190.3,46.8,196.3,45.6,196.3,36.6z"></path> <path class="st24" d="M208.9,37.8c0,4.3,0.8,6.2,2.2,7.4c1.5,1.4,3.2,1.6,4.7,1.6c1.8,0,3.5-0.5,4.9-2.1c1.4-1.6,1.7-4.3,1.7-7.4 v-3.8c0-4.7,0-5.5-0.1-6.4c-0.1-1-0.2-1.6-1.3-1.7c-0.2,0-0.7-0.1-1-0.1c-0.2,0-0.4-0.1-0.4-0.2c0-0.2,0.2-0.3,0.5-0.3 c1.5,0,3.3,0.1,3.4,0.1c0.2,0,1.7-0.1,2.7-0.1c0.4,0,0.5,0.1,0.5,0.2c0,0.1-0.1,0.2-0.4,0.2s-0.3,0-0.6,0c-1,0.1-1.1,0.7-1.2,1.8 c0,1,0,1.8,0,6.4v3.2c0,3.2-0.4,7-2.9,9.2c-2.3,2-4.6,2.1-6.5,2.1c-1,0-4.3,0-6.6-2.1c-1.5-1.4-2.6-3.6-2.6-8v-4.4 c0-4.7,0-5.5-0.1-6.5c0-1-0.2-1.6-1.3-1.7c-0.2,0-0.6-0.1-0.9-0.1c-0.2,0-0.4-0.1-0.4-0.2c0-0.2,0.1-0.3,0.5-0.3 c1.5,0,3.4,0.1,3.7,0.1c0.3,0,2.4-0.1,3.3-0.1c0.4,0,0.5,0.1,0.5,0.2s-0.2,0.2-0.4,0.2c-0.2,0-0.5,0-0.8,0.1 c-0.9,0.1-1,0.7-1.1,1.7c0,1,0,1.8,0,6.5V37.8z"></path> <path class="st24" d="M233.2,33.5c0-4.7,0-5.5-0.1-6.5c-0.1-1-0.3-1.5-1.4-1.7c-0.2,0-0.6-0.1-0.9-0.1c-0.2,0-0.4-0.1-0.4-0.2 c0-0.1,0.1-0.2,0.4-0.2c1.5,0,3.7,0.1,3.8,0.1c0.3,0,2.7-0.1,3.7-0.1c2,0,4.2,0.2,5.8,1.4c0.7,0.5,2.1,1.9,2.1,4.3 c0,2-1,4.4-3.8,6.7c2.6,3.2,4.7,5.8,6.5,7.7c1.7,1.7,2.8,2,3.8,2.2c0.2,0,1,0.1,1.1,0.1c0.3,0,0.4,0.1,0.4,0.2 c0,0.2-0.1,0.2-0.6,0.2h-2.5c-1.7,0-2.5-0.1-3.2-0.4c-1.5-0.6-2.6-2.2-4.4-4.6c-1.4-1.7-2.8-3.6-3.4-4.4 c-0.1-0.1-0.2-0.2-0.4-0.2l-3.7,0c-0.1,0-0.2,0-0.2,0.2v0.5c0,2.8,0,5.4,0.2,6.7c0.1,0.9,0.2,1.6,1.4,1.7c0.4,0,0.7,0.1,1,0.1 c0.3,0,0.5,0.1,0.5,0.2c0,0.2-0.1,0.3-0.5,0.3c-1.8,0-3.8-0.1-4-0.1c-0.6,0-2.1,0.1-3.1,0.1c-0.4,0-0.5-0.1-0.5-0.3 c0-0.1,0.2-0.2,0.4-0.2c0.2,0,0.5,0,0.8-0.1c0.6-0.1,0.8-0.5,0.9-1.4c0.2-1.3,0.1-4.2,0.1-6.9V33.5z M236,36.1 c0,0.2,0,0.4,0.2,0.4c0.5,0.2,1.9,0.5,3.2,0.5c0.7,0,1.6,0,2.4-0.5c1.1-0.7,1.8-2.2,1.8-4.5c0-3.9-2.1-6-5.2-6 c-0.9,0-1.6,0.1-2.1,0.2c-0.1,0-0.2,0.1-0.2,0.3V36.1z"></path> <path class="st24" d="M255.9,33.5c0-4.7,0-5.5-0.1-6.5c-0.1-1-0.3-1.5-1-1.6c-0.4-0.1-0.6-0.1-0.8-0.1c-0.2,0-0.4-0.1-0.4-0.2 c0-0.2,0.1-0.2,0.5-0.2c1.1,0,3.1,0.1,3.2,0.1c0.1,0,2.2-0.1,3.2-0.1c0.4,0,0.5,0.1,0.5,0.2c0,0.1-0.1,0.2-0.4,0.2 c-0.2,0-0.4,0-0.6,0.1c-1,0.1-1.1,0.7-1.2,1.7c-0.1,1,0,1.8,0,6.5v5.3c0,2.7,0,5.2,0.1,6.5c0.1,1,0.3,1.4,1.2,1.6 c0.5,0.1,1.2,0.1,1.4,0.1c0.3,0,0.4,0.1,0.4,0.2c0,0.1-0.1,0.2-0.5,0.2c-1.8,0-3.9-0.1-4.1-0.1c-0.1,0-2.2,0.1-3.2,0.1 c-0.3,0-0.6-0.1-0.6-0.2c0-0.1,0.1-0.2,0.5-0.2c0.2,0,0.6,0,0.9-0.1c0.6-0.1,0.7-0.9,0.8-1.7c0.2-1.3,0.2-3.8,0.2-6.5V33.5z"></path> </g> <g> <path class="st24" d="M276.7,47.2c-0.6-0.2-0.7-0.4-0.7-1.2c0-2,0.1-4.1,0.2-4.7c0-0.5,0.1-0.9,0.4-0.9c0.3,0,0.4,0.3,0.4,0.6 c0,0.5,0.1,1.2,0.3,1.8c0.8,2.6,2.9,3.6,5.1,3.6c3.2,0,4.8-2.2,4.8-4.1c0-1.7-0.5-3.4-3.5-5.7l-1.6-1.3c-3.9-3.1-5.3-5.5-5.3-8.4 c0-3.9,3.3-6.7,8.2-6.7c1.4,0,2.4,0.1,3.3,0.3c0.6,0.1,1.1,0.2,1.5,0.3c0.3,0.1,0.5,0.2,0.5,0.4c0,0.5-0.1,1.5-0.1,4.3 c0,0.8-0.1,1.1-0.4,1.1c-0.2,0-0.4-0.2-0.4-0.6c0-0.3-0.2-1.4-0.9-2.3c-0.5-0.7-1.6-1.7-3.9-1.7c-2.6,0-4.2,1.5-4.2,3.7 c0,1.6,0.8,2.9,3.8,5.1l1,0.7c4.3,3.2,5.8,5.7,5.8,9.1c0,2.1-0.8,4.5-3.3,6.2c-1.8,1.1-3.8,1.5-5.6,1.5 C279.8,48.1,278.2,47.8,276.7,47.2z"></path> <path class="st24" d="M331.6,39.7c0-1.6-0.3-2.3-0.7-3.2c-0.4-0.8-4.4-7.1-5.5-8.7c-0.9-1.2-1.5-1.8-2.2-2.1 c-0.4-0.2-0.8-0.3-1.1-0.4c-0.2,0-0.5-0.1-0.5-0.3c0-0.2,0.1-0.3,0.5-0.3c0.7,0,3.1,0.1,4.2,0.1c0.6,0,2-0.1,3.5-0.1 c0.3,0,0.5,0.1,0.5,0.3c0,0.2-0.1,0.3-0.6,0.4c-0.4,0.1-0.6,0.2-0.6,0.5c0,0.2,0.1,0.6,0.4,1c0.4,0.9,4.7,8.1,5.2,8.9 c0.6-1.2,4.2-7.2,4.6-8.2c0.3-0.7,0.5-1.2,0.5-1.6c0-0.3-0.1-0.5-0.7-0.7c-0.3-0.1-0.6-0.2-0.6-0.4c0-0.2,0.1-0.3,0.6-0.3 c1.1,0,2.1,0.1,3.1,0.1c0.6,0,2.8-0.1,3.4-0.1c0.4,0,0.6,0.1,0.6,0.3c0,0.2-0.2,0.4-0.6,0.4c-0.3,0-0.9,0.1-1.4,0.3 c-0.7,0.3-1,0.6-1.7,1.4c-1,1.2-5.4,8.4-6,9.7c-0.5,1.1-0.5,2.1-0.5,3v2.4c0,0.5,0,1.7,0.1,2.9c0.1,0.9,0.3,1.6,1.3,1.7 c0.5,0.1,1.1,0.1,1.6,0.1c0.4,0,0.5,0.2,0.5,0.3c0,0.2-0.2,0.3-0.6,0.3c-2,0-4.2-0.1-5.1-0.1c-0.8,0-2.9,0.1-4.1,0.1 c-0.5,0-0.7-0.1-0.7-0.3c0-0.1,0.2-0.3,0.5-0.3c0.4,0,0.7,0,1-0.1c0.7-0.1,1-0.7,1.1-1.6c0.1-1.3,0.1-2.5,0.1-3V39.7z"></path> <path class="st24" d="M348.8,33.5c0-4.5,0-5.3-0.1-6.3c0-1.1-0.3-1.6-1.3-1.7c-0.2,0-0.8-0.1-1.2-0.1c-0.4,0-0.6-0.1-0.6-0.4 c0-0.2,0.2-0.3,0.7-0.3c1.7,0,3.6,0.1,4.4,0.1c1.6,0,3-0.1,4.1-0.1c5.8,0,6.9,2.9,6.9,4.5c0,2.5-1.5,3.9-3.3,5.2 c2.7,0.9,5.8,3.1,5.8,6.6c0,3.3-2.7,6.6-8.6,6.6c-1.4,0-3.2-0.2-4.8-0.2c-1.3,0-2.6,0.1-4.1,0.1c-0.4,0-0.6-0.1-0.6-0.3 c0-0.1,0.1-0.3,0.5-0.3c0.4,0,0.8,0,1.1-0.1c0.6-0.1,0.8-0.7,0.9-1.6c0.2-1.4,0.2-3.6,0.2-6.6V33.5z M352.8,33.9 c0,0.2,0.1,0.3,0.2,0.3c0.3,0.1,0.9,0.1,1.6,0.1c1,0,1.7-0.1,2.2-0.6c0.8-0.6,1.2-1.7,1.2-3.1c0-2.1-1.2-4.6-3.9-4.6 c-0.5,0-0.7,0-1,0.1c-0.2,0.1-0.3,0.2-0.3,0.5V33.9z M352.8,38.2c0,1.4,0,3.4,0,4.9c0,1.8,0.1,2.3,1,2.7c0.8,0.3,1.5,0.4,2.2,0.4 c1.5,0,3.7-0.7,3.7-3.8c0-1.8-0.4-4.2-2.8-5.8c-0.7-0.5-1.5-0.7-2.7-0.8c-0.6,0-1,0-1.4,0c-0.1,0-0.2,0.1-0.2,0.2V38.2z"></path> <path class="st24" d="M369.9,33.5c0-4.6,0-5.4-0.1-6.4c-0.1-1-0.3-1.4-1.3-1.6c-0.3-0.1-0.8-0.1-1.2-0.1c-0.4,0-0.5-0.1-0.5-0.3 c0-0.2,0.2-0.3,0.7-0.3c1.5,0,2.9,0.1,4.5,0.1c1,0,7.5,0,8,0c0.6-0.1,1.1-0.1,1.4-0.2c0.2,0,0.4-0.1,0.5-0.1 c0.2,0,0.2,0.1,0.2,0.3c0,0.2-0.2,0.6-0.3,1.9c0,0.6-0.1,1.2-0.1,2.1c0,0.2-0.1,0.5-0.4,0.5c-0.2,0-0.3-0.2-0.3-0.6 c0-0.1,0-0.6-0.2-1c-0.2-0.6-0.5-0.9-2-1.1c-0.6-0.1-3.8-0.1-4.5-0.1c-0.1,0-0.2,0.1-0.2,0.3v7.4c0,0.2,0,0.3,0.2,0.3 c0.7,0,4.2,0,4.9,0c0.9-0.1,1.3-0.2,1.6-0.5c0.2-0.3,0.4-0.4,0.5-0.4c0.1,0,0.2,0.1,0.2,0.2c0,0.2-0.1,0.9-0.2,2.3 c0,0.6-0.1,1.9-0.1,2.1c0,0.2,0,0.6-0.3,0.6c-0.2,0-0.3-0.3-0.3-0.5c0-0.3,0-0.5-0.1-0.8c-0.2-0.7-0.5-1.1-1.8-1.2 c-0.6-0.1-3.6-0.1-4.4-0.1c-0.2,0-0.2,0.1-0.2,0.3v2.3c0,1,0,3.5,0,4.4c0.1,2.1,0.5,2.6,3.8,2.6c0.8,0,2.1,0,2.9-0.4 c0.8-0.4,1.2-1,1.4-2.3c0.1-0.3,0.1-0.5,0.4-0.5s0.2,0.3,0.2,0.6c0,0.8-0.2,2.9-0.4,3.6c-0.2,0.8-0.5,0.8-1.7,0.8 c-3.1,0-5.8-0.2-8.9-0.2c-1.3,0-2.6,0.1-4.1,0.1c-0.4,0-0.6-0.1-0.6-0.3c0-0.1,0.1-0.3,0.5-0.3c0.4,0,0.8,0,1.1-0.1 c0.6-0.1,0.8-0.8,0.9-1.9c0.1-1.2,0.1-3.6,0.1-6.1V33.5z"></path> <path class="st24" d="M392.2,40.1c-0.1,0-0.2,0.1-0.3,0.2l-1.6,3.9c-0.3,0.7-0.5,1.5-0.5,1.8c0,0.9,1.1,0.9,1.8,0.9 c0.4,0,0.5,0.1,0.5,0.3c0,0.2-0.2,0.3-0.6,0.3c-1.1,0-2.4-0.1-3.5-0.1c-0.4,0-2.1,0.1-3.8,0.1c-0.4,0-0.6-0.1-0.6-0.3 c0-0.2,0.2-0.3,0.4-0.3c2.2-0.2,2.7-0.6,3.6-2.7l7.5-17.8c0.6-1.7,1-2.3,1.4-2.3c0.3,0,0.5,0.3,0.8,1.1 c0.6,1.7,5.9,13.9,7.9,18.4c1.1,2.7,2,3.1,2.8,3.3c0.3,0.1,0.9,0.1,1.2,0.1c0.4,0,0.5,0.1,0.5,0.3c0,0.2-0.1,0.3-0.6,0.3 c-1.5,0-5.2,0.1-7.5-0.1c-0.3,0-0.5-0.1-0.5-0.3c0-0.1,0.1-0.2,0.3-0.3c0.3-0.1,0.6-0.2,0.4-0.6l-2.4-6c0-0.1-0.1-0.2-0.3-0.2 H392.2z M398.5,38.3c0.2,0,0.2-0.1,0.1-0.2l-2.8-7.2c-0.1-0.3-0.2-0.4-0.4,0l-2.8,7.2c0,0.1,0,0.2,0.1,0.2H398.5z"></path> <path class="st24" d="M412.6,25.3c0-0.7,0.1-1.1,0.5-1.1c0.3,0,0.6,0.4,1.1,0.9c0.6,0.5,4.7,4.8,9.8,9.6c2.3,2.2,6.3,6.3,6.9,6.8 l-0.3-13.1c0-1.8-0.3-2.4-1.1-2.7c-0.5-0.1-1.2-0.1-1.6-0.2c-0.4,0-0.5-0.2-0.5-0.4c0-0.2,0.4-0.3,0.8-0.3c1.6,0,3.2,0.1,3.9,0.1 c0.4,0,1.7-0.1,3.2-0.1c0.4,0,0.7,0.1,0.7,0.3c0,0.2-0.1,0.3-0.5,0.3c-0.3,0-0.6,0-0.9,0.1c-0.9,0.2-1.2,0.9-1.2,2.6 c-0.1,4.5-0.2,12.5-0.3,18.8c0,0.8-0.2,1.1-0.5,1.1c-0.4,0-0.9-0.4-1.5-1c-2-1.8-5.8-5.5-8.7-8.3c-3.1-2.9-6.6-6.6-7.5-7.5 l0.3,12.3c0.1,2.3,0.4,3.1,1.1,3.3c0.5,0.2,1.1,0.2,1.7,0.2c0.3,0,0.5,0.1,0.5,0.3c0,0.2-0.3,0.4-0.7,0.4c-1.8,0-3.1-0.1-3.9-0.1 c-0.4,0-2,0.1-3.6,0.1c-0.4,0-0.7,0-0.7-0.3c0-0.2,0.2-0.3,0.5-0.3c0.4,0,0.9,0,1.4-0.1c0.9-0.2,1-1,1.1-3.7 C412.4,36.7,412.6,29.3,412.6,25.3z"></path> <path class="st24" d="M439.2,47.2c-0.5-0.2-0.6-0.4-0.6-1c0-1.8,0.1-3.6,0.1-4.1c0-0.5,0.1-0.8,0.4-0.8c0.3,0,0.3,0.2,0.4,0.5 c0,0.4,0,0.9,0.2,1.4c0.6,2.3,2.6,3.3,4.6,3.3c2.8,0,4.1-1.7,4.1-3.3c0-1.4-0.4-2.8-3.1-4.7l-1.5-1.1c-3.5-2.7-4.7-4.7-4.7-7.2 c0-3.3,2.9-5.8,7.3-5.8c1.4,0,2.3,0.2,3.2,0.3c0.5,0.1,0.9,0.2,1.3,0.2c0.3,0,0.4,0.2,0.4,0.4c0,0.5-0.1,1.4-0.1,3.8 c0,0.7-0.1,0.9-0.4,0.9c-0.2,0-0.3-0.2-0.4-0.6c0-0.4-0.2-1.2-0.7-1.9c-0.5-0.8-1.5-1.6-3.6-1.6c-2.3,0-3.7,1.3-3.7,3 c0,1.3,0.6,2.5,3.2,4.2l1,0.7c4,2.7,5.3,4.8,5.3,7.7c0,1.8-0.8,3.9-3.1,5.4c-1.6,1-3.4,1.2-5,1.2C442,48,440.6,47.8,439.2,47.2z"></path> </g> <g> <path class="st24" d="M323.3,30.5c1.4,3.5,0.9,7.5-0.9,10.8c-3.6,6.8-12,10.4-19.5,8.6c-8.7-2-12.5-11-8.1-18.8 c3.8-7,12.8-10.6,20.3-8C318.7,24.4,321.9,27,323.3,30.5L323.3,30.5z M323.1,30.6c-5.1-10.5-21.2-7-26.3,1.7 c-4.1,6.5-0.9,14.1,6.5,16.1C313.3,51.5,327.4,41.8,323.1,30.6L323.1,30.6z"></path> <path class="st24" d="M309.2,28.8c-0.4-1-2.5-0.8-4.3-0.1c-1.9,0.7-3.6,1.9-3.2,2.9c0.2,0.5,0.8,0.7,1.6,0.7 c0.8,0,1.8-0.2,2.8-0.6C307.8,31,309.5,29.8,309.2,28.8z"></path> </g> </g> <g> <g> <g> <path class="st24" d="M80.5,56.5c-0.1-0.1-0.1-0.2-0.1-0.4c-0.2-0.6-0.3-0.7-0.6-1L79.7,55c-0.1-0.2-0.2-0.4-0.3-0.6 c-0.1-0.2-0.1-0.5-0.3-0.7l0-0.1l-1.8-0.2l-0.9-0.8L75.7,51l-0.1,0c-0.2,0-0.4-0.5-0.4-0.8c0.1-0.3,0.3-0.4,0.6-0.4l0.1,0 c0.3-0.1,0.4-0.3,0.5-0.6c0.1-0.3,0.1-0.5-0.1-0.8c-0.4-0.5-0.6-1-0.8-1.5c-0.1-0.3-0.2-0.5-0.4-0.9c-0.1-0.3-0.2-0.6-0.3-1 c-0.1-0.6-0.2-1.2-0.9-1.4c-0.2,0-0.4,0-0.5,0c-0.1,0-0.3,0-0.4,0c-0.6-0.1-1.2-1.3-1.4-1.7l0-0.1l-0.7-0.2l-2-0.4L67,40.4 l-1.2-1.2l-0.8-1l-0.7-0.9L63.8,37l0.1-0.8c-0.1,0-0.2,0-0.3,0l-0.1,1l0.6,0.3l0.7,0.9l0.9,1l1.2,1.2l1.9,1l2.1,0.4l0.6,0.2 c0.1,0.3,0.8,1.6,1.6,1.8c0.2,0,0.4,0,0.5,0c0.1,0,0.2,0,0.4,0c0.5,0.1,0.6,0.5,0.7,1.2c0.1,0.3,0.1,0.7,0.3,1 c0.1,0.3,0.2,0.6,0.3,0.8c0.2,0.6,0.4,1.1,0.8,1.6c0.1,0.2,0.1,0.3,0.1,0.5c-0.1,0.2-0.1,0.3-0.3,0.4c-0.4,0-0.8,0.3-0.9,0.7 l0,0l0,0c0,0.1,0.2,0.9,0.6,1l0.7,1.5l1,0.9l1.8,0.2c0.1,0.2,0.2,0.4,0.2,0.6c0.1,0.2,0.1,0.5,0.3,0.7l0.1,0.1 c0.3,0.3,0.4,0.4,0.5,0.9c0,0.1,0.1,0.3,0.2,0.4c0.1,0.3,0.2,0.4,0.2,0.7c0,0.2,0,0.4,0,0.6c0,0.3,0,0.6-0.2,0.9l0,0l0,0 c0,0.4,0,1.6-0.5,1.8c-0.4,0.2-1.1,0-1.3-0.1l-1.1,0l-0.9,0.7l-0.4,1.1L75.8,63l-0.4,1.1c-0.3,0.7-0.7,1.3-0.8,1.3l-0.2-0.1 l-0.3,0.8l0.3,0.5l-0.2,0.6l-0.4,0.5l-0.2,0.7l0.2,0.6v1h-8c0-0.2,0.1-0.4,0.1-0.6c0-0.2,0.1-0.3,0.2-0.4 c0.1-0.1,0.2-0.3,0.2-0.5c0-0.2,0.1-0.3,0.1-0.4c0-0.1,0-0.3,0.1-0.4c0.1-0.3,0.2-0.4,0.4-0.6l0.1-0.1c0.3-0.4,0.5-0.6,0.9-0.9 l1-1.2c0.2-0.3,0.2-0.6,0-1l0,0l0,0c0,0-0.6-0.3-1.1-0.2H14.5v-39l-1-0.1c-0.3-0.1-0.4-0.1-0.5-0.3c-0.2-0.2-0.2-0.3-0.2-0.6 c0-0.1,0-0.2,0.1-0.3c0.1-0.1,0.1-0.3,0.1-0.5c-0.1-0.7-0.6-1.2-1.2-1.2c0,0,0,0,0,0c-0.2,0-0.4-0.1-0.5-0.3 C11,21,11,20.9,11,20.6l0-0.1l-0.8-0.9c-0.3-0.2-0.4-0.4-0.5-0.6c-0.1-0.3-0.2-0.5-0.2-0.8L9.8,18l0.4-0.1l0.6-0.7 c0,0,0.7-0.5,0.9-1c0.1-0.1,0.1-0.2,0.2-0.2c0.2-0.3,0.4-0.6,0.3-1c-0.1-0.3-0.5-0.6-0.6-0.6c-0.2-0.3-0.5-0.5-0.9-0.5 c-0.3,0-0.6,0.1-0.8,0.3C9.8,14,9.7,14,9.7,13.9c-0.1-0.1-0.2-0.2-0.4-0.3c-0.1-0.1-0.2-0.2-0.3-0.2c-0.2-0.2-0.4-0.4-0.8-0.6 c-0.2-0.1-0.4-0.2-0.6-0.2c-0.1,0-0.3-0.1-0.4-0.1c-0.1,0-0.2-0.1-0.3-0.1c-0.3-0.1-0.6-0.2-0.8-0.5c-0.2-0.2-0.1-0.5-0.1-0.8 c0.1-0.3,0.1-0.6-0.1-1C6,9.6,5.8,9.4,5.4,9.1C5,8.8,4.9,8.6,4.5,8.3C4.4,8.2,4.2,8.1,4.1,8C3.8,7.9,3.7,7.8,3.7,7.6 c0-0.3-0.1-1.1-0.2-1.4c0-0.1,0-0.2,0.1-0.3c0.1-0.1,0.2-0.3,0.1-0.5C3.6,5.1,3.3,5,3.1,4.9C3,4.8,2.8,4.7,2.7,4.6 C2.6,4.4,2.6,4.2,2.5,4H48c0.3,0.4,0.5,0.6,0.9,0.9c0,0,0.1,0,0.1,0.1c0-0.1,0-0.3,0.1-0.4c-0.3-0.3-0.5-0.5-0.8-0.8l-0.1-0.1 h-46l0,0.2c0,0.4,0.1,0.6,0.3,0.9C2.6,5,2.8,5.1,3,5.2c0.2,0.1,0.3,0.2,0.3,0.3c0,0,0,0.1,0,0.1H0.2c0.1,0.3,0.1,0.5,0.3,0.8 c0.2,0.4,0.8,0.3,0.9,0.8c0,0.3-0.3,0.5-0.2,0.8c0.1,0.3,0.2,1,0.2,1.4c0,0.5,0.5,0.5,0.9,0.8c0.4,0.3,0.5,0.5,0.9,0.8 c0.3,0.2,0.5,0.5,0.7,0.8C4.2,12.4,3.6,13,4,13.5C4.3,14,4.7,14,5.1,14.2c0.4,0.2,0.6,0.2,1,0.4c0.4,0.2,0.6,0.5,1,0.8 c0.3,0.2,0.4,0.4,0.7,0.6c0.2-0.3,0.4-0.4,0.8-0.4c0.4,0,0.6,0.1,0.8,0.4c0,0,0.5,0.3,0.6,0.6c0.1,0.4-0.2,0.7-0.4,1.1 c0,0,0,0,0,0.1L9.1,18l0,0.1c0,0,0,0.1,0,0.1c-0.3,0.3-0.6,0.5-0.6,0.5L8,19.4l-0.4,0.1l-0.4,0.3c0,0.4,0.1,0.6,0.2,0.9 c0.2,0.3,0.3,0.5,0.5,0.7l0.8,0.8c0,0.3,0.1,0.5,0.2,0.7c0.2,0.2,0.4,0.4,0.6,0.4c0.6,0,1,0.4,1.1,1c0,0.3-0.2,0.5-0.2,0.8 c0,0.3,0.1,0.5,0.3,0.7c0.2,0.2,0.4,0.3,0.6,0.4l0.9,0.1v39h53.3c0.5-0.1,1,0.2,1,0.2c0.2,0.2,0.2,0.5,0,0.8l-1,1.2 c-0.4,0.3-0.6,0.5-0.9,0.9c-0.2,0.3-0.4,0.4-0.5,0.8c-0.1,0.3-0.1,0.5-0.2,0.8c-0.1,0.4-0.3,0.5-0.4,0.8 c-0.1,0.3-0.1,0.5-0.1,0.9h8.3v-1.1l-0.1-0.4H74V69l-0.2-0.6l0.2-0.5l0.4-0.5l0.3-0.8l-0.3-0.5l0.1-0.3c0,0,0,0,0.1,0 c0.4-0.1,0.9-1.2,1-1.5l0.4-1.2l0.1-0.6c0.3,0.1,0.9,0.3,1.4,0.1c0.5-0.2,0.6-1.1,0.6-1.6h0c0.2,0.1,1,0.3,1.5,0.1 c0.7-0.4,0.7-1.8,0.7-2.1c0.2-0.4,0.2-0.7,0.2-1.1c0-0.2,0-0.4,0-0.6C80.8,57,80.6,56.7,80.5,56.5z"></path> </g> <g> <path class="st24" d="M57.4,37.2c-0.2-0.6-0.5-1-0.8-1.5c-0.1-0.2-0.3-0.4-0.4-0.7c-0.1-0.1-0.2-0.3-0.3-0.4 c-0.2-0.2-0.4-0.5-0.5-0.9c-0.1-0.5,0-0.9,0.2-1.2c0.1-0.2,0.1-0.3,0.2-0.5c0.1-0.4,0.2-0.8,0.3-1.1c0.1-0.4,0.3-0.8,0.3-1.4 c0-0.1,0-0.2,0-0.3c0-0.1-0.1-0.1-0.1-0.2c-0.3-0.3-0.5-0.5-0.8-0.7c-0.2-0.2-0.5-0.3-0.7-0.6c-0.6-0.6-1-1-1.5-1.7 c-0.4-0.6-0.6-1.1-0.9-1.8c-0.4-1-0.5-1.6-0.6-2.6c0,0,0,0,0,0c-0.1,0.1-0.2,0.2-0.3,0.4c-0.1,0.1-0.2,0.2-0.3,0.3 c-0.3,0.4-0.6,0.6-0.8,0.8c-0.2,0.2-0.3,0.3-0.5,0.5l-0.2,0.2c-0.1,0.1-0.3,0.3-0.4,0.4l-0.9,1.1c-0.1,0.1-0.1,0.2-0.2,0.2 l-0.5,1c-0.1,0.2-0.1,0.4-0.1,0.5c0,0.3-0.1,0.6-0.2,0.9c0,0.3,0,0.6,0,1c0.1,1,0.1,1.6,0.3,2.6c0.1,0.5,0.3,0.9,0.5,1.3 c0.2,0.5,0.5,1,0.5,1.8c0,0.7,0,1.1-0.1,1.8c-0.1,0.9-0.1,1.5-0.1,2.4c0,1.1,0,1.7,0.2,2.7c0.2,1,0.3,1.5,0.7,2.4 c0.6,1.2,1.1,1.8,2.2,2.7c0.9,0.7,1.5,1,2.6,1.4c1.3,0.5,2.1,0.6,3.4,0.5l0-0.2c-0.1-0.5-0.1-1-0.2-1.6c0-0.2-0.1-0.3-0.1-0.5 c-0.1-0.3-0.1-0.7-0.1-1.1c0-0.4,0.1-0.8,0.2-1.1c0.1-0.2,0.2-0.5,0.2-0.7c0.1-0.5,0.1-0.9,0.2-1.4c0-0.2,0-0.4,0.1-0.6 c0-0.2,0-0.4,0-0.6c0-0.4,0.1-0.7,0-1.2C57.8,38.6,57.7,38.1,57.4,37.2z"></path> <path class="st24" d="M68.6,33c-0.1-0.3-0.2-0.6-0.3-0.9c-0.1-0.5-0.3-0.9-0.5-1.4l-0.1-0.3c-0.3-0.8-0.6-1.4-1.2-2.1 c-0.4-0.5-0.7-0.7-1.2-1c-0.2-0.1-0.3-0.2-0.5-0.4c-0.3-0.2-0.6-0.4-0.9-0.6c-0.4-0.2-0.9-0.5-1.3-1c-0.4-0.6-0.6-1-0.7-1.6 l-0.1-0.2c-0.1-0.4-0.2-0.8-0.2-1.1c0-0.3-0.1-0.6-0.2-1l0-0.1c-0.2-0.7-0.3-1-0.6-1.6c-0.2-0.4-0.4-0.6-0.7-0.9 c-0.1-0.1-0.2-0.2-0.3-0.4c-0.2-0.2-0.4-0.4-0.6-0.6c-0.3-0.3-0.7-0.5-0.9-1.1c-0.2-0.5-0.2-0.8-0.2-1.2c0-0.2,0-0.4,0-0.7 l0-0.3c-0.1-0.7-0.2-1.1-0.4-1.8c0-0.2-0.1-0.3-0.1-0.5c-0.2-0.6-0.3-1-0.6-1.6c-0.3-0.5-0.6-0.8-1-1.2 c-0.1-0.1-0.2-0.2-0.3-0.3c-0.3-0.2-0.5-0.4-0.8-0.5c-0.3-0.2-0.6-0.4-0.9-0.7c-0.5-0.5-0.9-0.9-1.3-1.5 c-0.2-0.3-0.3-0.6-0.5-0.8c0,0.1,0,0.1-0.1,0.2c-0.1,0.4-0.3,0.7-0.4,1c0,0,0,0.1-0.1,0.1c-0.1,0.3-0.2,0.6-0.3,0.9 c-0.1,0.4-0.2,0.7-0.3,1c-0.2,0.5-0.3,0.9-0.4,1.5c-0.1,0.8-0.1,1.3,0,2c0,0.2,0,0.4,0,0.6c0,0.3,0,0.5,0,0.7c0,0.2,0,0.4,0,0.6 c0,0.3,0.1,0.6,0.2,0.9c0.1,0.5,0.2,0.8,0.4,1.2c0.1,0.2,0.1,0.3,0.2,0.5c0.1,0.2,0.2,0.4,0.3,0.6c0.1,0.2,0.1,0.3,0.2,0.4 c0.1,0.3,0.3,0.5,0.4,0.9c0.1,0.4,0.1,0.7,0.1,0.9c0,0.1,0,0.2,0,0.3c0,0.1,0,0.2,0,0.2c0,0,0,0,0,0.1c0,0.3-0.1,0.7,0,1 c0.1,1,0.2,1.6,0.5,2.5c0.3,0.7,0.5,1.1,0.9,1.7c0.5,0.7,0.8,1.1,1.4,1.6c0.2,0.2,0.4,0.4,0.7,0.5c0.2,0.2,0.4,0.3,0.7,0.5 c0.1,0.1,0.2,0.2,0.3,0.3c0,0,0,0,0,0c0.1,0.1,0.2,0.2,0.2,0.3c0.2,0.4,0.3,0.7,0.4,1.1c0.1,0.3,0.2,0.7,0.4,1l0.2,0.4 c0.4,0.8,0.7,1.3,1.3,2.1c0.7,0.7,1.1,1.1,1.9,1.5c0.7,0.3,1.1,0.4,1.8,0.5c0.9,0.1,1.4,0.1,2.3,0c0.8-0.1,1.2-0.2,2-0.4 c0.7-0.2,1.1-0.4,1.7-0.7C69,34.2,68.9,33.8,68.6,33z"></path> <path class="st24" d="M47.9,24.9c0-0.1,0.1-0.1,0.1-0.2l0.1-0.2c0.2-0.3,0.4-0.5,0.6-0.7c0.1-0.1,0.3-0.3,0.4-0.4l0.2-0.2 c0.2-0.2,0.4-0.4,0.5-0.5c0.3-0.2,0.5-0.5,0.8-0.8c0.1-0.1,0.2-0.2,0.3-0.3c0,0,0.1-0.1,0.1-0.1c0.2-0.2,0.4-0.4,0.5-0.6 c0-0.1,0.1-0.2,0.1-0.3c0-0.1,0.1-0.3,0.1-0.4c0-0.3,0-0.6-0.1-1l0-0.2c-0.1-0.4-0.2-0.7-0.4-1c-0.1-0.2-0.2-0.4-0.3-0.7 c0,0,0-0.1,0-0.1c-0.1-0.2-0.1-0.4-0.2-0.5c-0.2-0.4-0.3-0.8-0.4-1.3c-0.1-0.4-0.1-0.7-0.2-1c0-0.4-0.1-0.7,0-1.2 C50,12.6,50,12.2,50,11.5c0.1-0.9,0.2-1.3,0.4-2.2c0.2-0.7,0.3-1.2,0.6-1.9C51,7.2,51.1,7,51.2,6.8c0-0.1,0.1-0.1,0.1-0.2 c0.2-0.3,0.3-0.5,0.4-0.8c0.2-0.6,0.2-1,0.1-1.6c0,0,0,0,0,0c0-0.7,0-1-0.1-1.7c-0.1-0.7-0.1-1.2-0.3-1.8L50,1.2 c0,0.5,0,0.8-0.1,1.4c0,0.4-0.1,0.7-0.2,1.1L49.7,4c0,0.2-0.1,0.4-0.1,0.6c0,0.4-0.1,0.7-0.2,1.1c-0.2,0.5-0.4,0.8-0.7,1.2 l-0.1,0.2c-0.3,0.5-0.7,0.8-1.1,1c-0.4,0.3-0.8,0.6-1,1.1c-0.3,0.6-0.4,1.1-0.5,1.7c0,0.2-0.1,0.4-0.1,0.6 c-0.1,0.5-0.1,0.9-0.2,1.3l0,0.4c0,0.2,0,0.4,0,0.6c0,0.3,0,0.6-0.1,1c-0.2,0.6-0.4,1-0.8,1.5l0,0c-0.3,0.5-0.7,0.7-1,0.9 c-0.3,0.2-0.6,0.4-0.9,0.8c-0.4,0.5-0.6,0.7-0.9,1.3c-0.1,0.3-0.2,0.5-0.2,0.8c0,0.2-0.1,0.4-0.2,0.6c-0.2,0.7-0.3,1-0.5,1.7 c-0.1,0.2-0.1,0.3-0.1,0.4c-0.1,0.3-0.1,0.5-0.4,0.9c-0.3,0.4-0.7,0.6-1,0.7c-0.2,0.1-0.3,0.1-0.5,0.2c-0.2,0.1-0.4,0.2-0.6,0.3 c-0.2,0.1-0.4,0.2-0.6,0.3c-0.1,0.1-0.2,0.1-0.3,0.2c-0.3,0.2-0.6,0.4-0.9,0.7c-0.3,0.3-0.5,0.5-0.7,0.9 c-0.1,0.1-0.1,0.2-0.2,0.3c-0.2,0.2-0.3,0.4-0.4,0.6c-0.1,0.2-0.3,0.5-0.5,0.8c-0.5,0.5-0.8,0.9-1.5,1.2c0.6,0.9,1.1,1.3,2,1.9 c1,0.6,1.6,0.9,2.7,1.1c0.8,0.1,1.3,0.1,2,0l0.7-0.1c0.8-0.1,1.3-0.2,2.1-0.5c0.8-0.3,1.2-0.6,1.8-1.2c0.5-0.5,0.8-0.9,1.1-1.4 l0.2-0.3c0.1-0.2,0.2-0.3,0.3-0.4c0.3-0.4,0.5-0.7,0.6-1.2c0,0,0-0.1,0-0.1c0.1-0.3,0.2-0.5,0.2-0.8c0-0.2,0.1-0.4,0.1-0.6 c0-0.1,0.1-0.2,0.1-0.3c0.1-0.3,0.3-0.5,0.4-0.8C47.8,25.1,47.9,25,47.9,24.9z"></path> </g> </g> </g> </g> </svg> 